#N canvas 150 128 205 332 10;
#X obj 20 8 cnv 15 125 300 empty empty mfxlive 20 12 0 14 #addbfd #404040 0;
#X obj 120 8 bng 25 250 50 0 mfx-ind r-mfx-ind act 7 32 0 10 #c6feff #000000 #000000;
#X obj 72 48 tgl 25 1 mfx-thru r-mfx-thru thru 32 7 0 10 #feffc6 #000000 #000000 1 1;
#X obj 72 77 tgl 25 0 mfx-qtr r-mfx-qtr qtr 32 7 0 10 #feffc6 #000000 #000000 0 1;
#X obj 72 106 tgl 25 0 mfx-8th r-mfx-8th 8th 32 7 0 10 #feffc6 #000000 #000000 0 1;
#X obj 72 134 tgl 25 0 mfx-16th r-mfx-16th 16th 32 7 0 10 #feffc6 #000000 #000000 0 1;
#X obj 72 162 tgl 25 0 mfx-32nd r-mfx-32nd 32nd 32 7 0 10 #feffc6 #000000 #000000 0 1;
#X obj 72 248 tgl 25 1 mfx-moct r-mfx-moct -oct 30 7 0 10 #feffc6 #000000 #000000 0 1;
#X obj 72 191 tgl 25 0 mfx-5th r-mfx-5th +5th 32 7 0 10 #feffc6 #000000 #000000 0 1;
#X obj 72 219 tgl 25 0 mfx-oct r-mfx-oct +oct 30 7 0 10 #feffc6 #000000 #000000 0 1;
#N canvas 668 284 772 588 guts 1;
#N canvas 224 25 1216 820 midieffects 1;
#X obj 137 7 midirealtimein;
#X obj 39 288 bng 15 250 50 0 empty empty empty 17 7 0 10 #fcfcfc #000000 #000000;
#X obj 60 288 bng 15 250 50 0 empty empty empty 17 7 0 10 #fcfcfc #000000 #000000;
#X obj 82 288 bng 15 250 50 0 empty empty empty 17 7 0 10 #fcfcfc #000000 #000000;
#X obj 104 288 bng 15 250 50 0 empty empty empty 17 7 0 10 #fcfcfc #000000 #000000;
#X obj 205 188 + 1;
#X obj 137 188 f;
#X obj 39 255 sel 0 24 48 72;
#X obj 75 76 == 248;
#X msg 161 142 0;
#X obj 163 99 t b b;
#X text 188 141 < resets counter to 0;
#X obj 39 317 t b;
#X obj 40 350 bng 15 250 50 0 empty empty empty 17 7 0 10 #fcfcfc #000000 #000000;
#X obj 146 254 sel 0;
#X obj 145 289 bng 15 250 50 0 empty empty empty 17 7 0 10 #fcfcfc #000000 #000000;
#X text 187 220 < you have two different options here a) separate out the beats or b) use in the more conventional [metro] form.;
#X floatatom 158 361 5 0 0 0 - - - 0;
#X obj 164 327 f 1;
#X obj 206 328 + 1;
#X floatatom 28 412 5 0 0 0 - - - 0;
#X floatatom 67 412 5 0 0 0 - - - 0;
#X obj 139 41 select 248 250 252;
#X obj 299 102 bng 16 250 50 0 empty empty empty 0 -8 0 10 #fcfcfc #000000 #000000;
#X floatatom 203 295 5 0 0 0 - - - 0;
#X obj 112 225 % 96;
#X obj 153 226 % 3;
#X obj 122 467 bng 16 250 50 0 empty empty empty 0 -8 0 10 #fcfcfc #000000 #000000;
#X obj 121 439 sel 0;
#X obj 123 407 % 32;
#X obj 75 380 % 32;
#X obj 28 381 div 32;
#X text 240 295 reset;
#X obj 195 467 bng 16 250 50 0 empty empty empty 0 -8 0 10 #fcfcfc #000000 #000000;
#X obj 194 439 sel 0;
#X obj 244 465 bng 16 250 50 0 empty empty empty 0 -8 0 10 #fcfcfc #000000 #000000;
#X obj 243 437 sel 0;
#X obj 316 468 bng 16 250 50 0 empty empty empty 0 -8 0 10 #fcfcfc #000000 #000000;
#X obj 315 440 sel 0;
#X obj 196 407 % 16;
#X obj 245 405 % 8;
#X obj 317 408 % 4;
#X obj 377 468 bng 16 250 50 0 empty empty empty 0 -8 0 10 #fcfcfc #000000 #000000;
#X obj 376 440 sel 0;
#X obj 378 408 % 2;
#X obj 433 468 bng 16 250 50 0 empty empty empty 0 -8 0 10 #fcfcfc #000000 #000000;
#X obj 432 440 sel 0;
#X obj 434 408 % 1;
#N canvas 0 22 450 278 (subpatch) 0;
#X array \$0-pitches 5 float 3;
#A 0 60 53 57 60 53;
#X coords 0 90 5 20 200 140 1 0 0;
#X restore 26 505 graph;
#X obj 562 143 stripnote;
#X obj 553 183 t f b;
#X obj 604 180 f;
#X obj 641 183 + 1;
#X obj 541 253 array set \$0-pitches;
#X obj 343 638 array get \$0-pitches;
#X floatatom 337 665 5 0 0 0 - - - 0;
#X obj 570 9 notein 1;
#X obj 694 796 noteout 2;
#X obj 414 583 + 1;
#X obj 346 583 f;
#X floatatom 432 619 5 0 0 0 - - - 0;
#X floatatom 751 648 5 0 0 0 - - - 0;
#X obj 305 556 spigot;
#X obj 899 347 tgl 16 0 empty empty empty 0 -8 0 10 #ffe3c6 #000000 #000000 0 1;
#X obj 937 350 tgl 16 0 empty empty empty 0 -8 0 10 #ffe3c6 #000000 #000000 0 1;
#X obj 370 556 spigot;
#X obj 968 350 tgl 16 0 empty empty empty 0 -8 0 10 #ffe3c6 #000000 #000000 0 1;
#X obj 436 558 spigot;
#X obj 850 284 sel 1;
#X obj 893 281 sel 1;
#X obj 943 281 sel 1;
#X msg 850 311 0;
#X msg 893 308 0;
#X msg 943 308 0;
#X obj 246 557 spigot;
#X obj 853 348 tgl 16 0 empty empty empty 0 -8 0 10 #ffe3c6 #000000 #000000 0 1;
#X obj 542 511 sel 1;
#X msg 542 538 0;
#X floatatom 621 340 5 0 0 0 - - - 0;
#X obj 724 261 pack f f;
#X text 781 259 bypass;
#X obj 732 307 spigot;
#X obj 731 349 unpack f f;
#X obj 1029 175 tgl 16 0 empty empty empty 0 -8 0 10 #c6feff #000000 #000000 0 1;
#X obj 984 281 sel 1;
#X msg 984 308 0;
#X text 283 638 Arp Cache;
#X obj 306 617 f;
#X obj 282 684 spigot;
#X obj 338 688 spigot;
#X obj 547 562 tgl 16 0 empty empty empty 0 -8 0 10 #c7c6ff #000000 #000000 0 1;
#X obj 612 561 tgl 16 0 empty empty empty 0 -8 0 10 #c7c6ff #000000 #000000 0 1;
#X text 634 554 arp;
#X obj 549 615 sel 1;
#X obj 618 617 sel 1;
#X msg 560 642 0;
#X msg 618 644 0;
#X obj 658 784 bng 16 250 50 0 empty empty empty 0 -8 0 10 #fcfcfc #000000 #000000;
#X text 221 117 experiment with delay to sync host with this clock;
#X text 763 688 output indicator;
#X text 25 428 measure counts;
#X obj 917 424 tgl 16 0 empty empty empty 0 -8 0 10 #c6feff #000000 #000000 0 1;
#N canvas 466 340 450 300 mux 0;
#X obj 101 53 inlet;
#X obj 150 52 inlet;
#X obj 202 54 inlet;
#X obj 136 174 spigot;
#X obj 201 175 spigot;
#X obj 168 141 tgl 16 0 empty empty empty 0 -8 0 10 #fcfcfc #000000 #000000 0 1;
#X obj 205 90 tgl 16 0 empty empty empty 0 -8 0 10 #fcfcfc #000000 #000000 0 1;
#X obj 176 210 outlet;
#X obj 259 120 != 1;
#X text 0 118 stream augmentation happens here;
#X connect 0 0 3 0;
#X connect 1 0 4 0;
#X connect 2 0 6 0;
#X connect 3 0 7 0;
#X connect 4 0 7 0;
#X connect 5 0 3 1;
#X connect 6 0 8 0;
#X connect 6 0 4 1;
#X connect 8 0 5 0;
#X restore 869 557 pd mux;
#X obj 868 515 + 12;
#X obj 161 123 del 524;
#X obj 631 9 inlet;
#X obj 669 10 inlet;
#X obj 708 10 inlet;
#X obj 745 10 inlet;
#X obj 785 15 inlet;
#X obj 822 10 inlet;
#X obj 859 9 inlet;
#X obj 896 10 inlet;
#X obj 579 801 s r-mfx-ind;
#X obj 667 754 makenote 90 230;
#X obj 968 554 tgl 16 0 empty empty empty 0 -8 0 10 #c6feff #000000 #000000 0 1;
#N canvas 466 340 450 300 mux 0;
#X obj 101 53 inlet;
#X obj 150 52 inlet;
#X obj 202 54 inlet;
#X obj 136 174 spigot;
#X obj 201 175 spigot;
#X obj 168 141 tgl 16 0 empty empty empty 0 -8 0 10 #fcfcfc #000000 #000000 0 1;
#X obj 205 90 tgl 16 0 empty empty empty 0 -8 0 10 #fcfcfc #000000 #000000 0 1;
#X obj 176 210 outlet;
#X obj 259 120 != 1;
#X text 0 118 stream augmentation happens here;
#X connect 0 0 3 0;
#X connect 1 0 4 0;
#X connect 2 0 6 0;
#X connect 3 0 7 0;
#X connect 4 0 7 0;
#X connect 5 0 3 1;
#X connect 6 0 8 0;
#X connect 6 0 4 1;
#X connect 8 0 5 0;
#X restore 879 652 pd mux;
#X obj 934 9 inlet;
#X obj 886 591 - 12;
#X obj 1013 7 r mfx-prob;
#X obj 204 751 tgl 16 0 empty empty empty 0 -8 0 10 #fcfcfc #000000 #000000 0 1;
#X obj 282 710 spigot;
#X obj 270 781 print random:;
#X text 566 562 repeat;
#X text 235 688 repeat;
#X text 379 689 arp;
#X text 268 743 prob;
#X text 769 628 pitch manipulation;
#X obj 974 602 tgl 16 0 empty empty empty 0 -8 0 10 #c6feff #000000 #000000 0 1;
#X obj 975 9 inlet;
#N canvas 466 340 450 300 mux 0;
#X obj 101 53 inlet;
#X obj 150 52 inlet;
#X obj 202 54 inlet;
#X obj 136 174 spigot;
#X obj 201 175 spigot;
#X obj 168 141 tgl 16 0 empty empty empty 0 -8 0 10 #fcfcfc #000000 #000000 0 1;
#X obj 205 90 tgl 16 0 empty empty empty 0 -8 0 10 #fcfcfc #000000 #000000 0 1;
#X obj 176 210 outlet;
#X obj 259 120 != 1;
#X text 0 118 stream augmentation happens here;
#X connect 0 0 3 0;
#X connect 1 0 4 0;
#X connect 2 0 6 0;
#X connect 3 0 7 0;
#X connect 4 0 7 0;
#X connect 5 0 3 1;
#X connect 6 0 8 0;
#X connect 6 0 4 1;
#X connect 8 0 5 0;
#X restore 871 724 pd mux;
#X obj 887 689 + 7;
#N canvas 402 244 446 544 prob 0;
#X obj 102 46 bng 16 250 50 0 empty empty empty 0 -8 0 10 #fcfcfc #000000 #000000;
#X obj 131 230 bng 16 250 50 0 empty empty empty 0 -8 0 10 #fcfcfc #000000 #000000;
#X obj 110 204 sel 0 1;
#X msg 79 175 0;
#X msg 110 174 1;
#X obj 128 260 random 100;
#X floatatom 127 308 5 0 0 0 - - - 0;
#X obj 115 394 <;
#X floatatom 165 310 5 0 0 0 - - - 0;
#X obj 154 335 t b f;
#X obj 82 12 inlet;
#X obj 92 488 outlet;
#X obj 164 12 inlet;
#X connect 0 0 3 0;
#X connect 0 0 4 0;
#X connect 1 0 5 0;
#X connect 2 1 1 0;
#X connect 4 0 2 0;
#X connect 5 0 6 0;
#X connect 6 0 7 0;
#X connect 7 0 11 0;
#X connect 8 0 9 0;
#X connect 9 0 7 0;
#X connect 9 1 7 1;
#X connect 10 0 0 0;
#X connect 12 0 8 0;
#X restore 204 725 pd prob;
#N canvas 402 244 446 544 prob 0;
#X obj 102 46 bng 16 250 50 0 empty empty empty 0 -8 0 10 #fcfcfc #000000 #000000;
#X obj 131 230 bng 16 250 50 0 empty empty empty 0 -8 0 10 #fcfcfc #000000 #000000;
#X obj 110 204 sel 0 1;
#X msg 79 175 0;
#X msg 110 174 1;
#X obj 128 260 random 100;
#X floatatom 127 308 5 0 0 0 - - - 0;
#X obj 115 394 <;
#X floatatom 165 310 5 0 0 0 - - - 0;
#X obj 154 335 t b f;
#X obj 82 12 inlet;
#X obj 92 488 outlet;
#X obj 164 12 inlet;
#X connect 0 0 3 0;
#X connect 0 0 4 0;
#X connect 1 0 5 0;
#X connect 2 1 1 0;
#X connect 4 0 2 0;
#X connect 5 0 6 0;
#X connect 6 0 7 0;
#X connect 7 0 11 0;
#X connect 8 0 9 0;
#X connect 9 0 7 0;
#X connect 9 1 7 1;
#X connect 10 0 0 0;
#X connect 12 0 8 0;
#X restore 1077 422 pd prob;
#X obj 1085 7 r mfx-prob-pitch;
#X obj 1077 449 tgl 16 0 empty empty empty 0 -8 0 10 #fcfcfc #000000 #000000 0 1;
#N canvas 569 313 194 262 probifon 0;
#X obj 65 122 spigot;
#X floatatom 66 83 5 0 0 0 - - - 0;
#X floatatom 64 159 5 0 0 0 - - - 0;
#X obj 132 107 0;
#X obj 101 24 inlet;
#X obj 63 211 outlet;
#X obj 45 23 inlet;
#X connect 0 0 2 0;
#X connect 1 0 0 1;
#X connect 2 0 5 0;
#X connect 3 0 2 0;
#X connect 4 0 1 0;
#X connect 4 0 3 0;
#X connect 6 0 0 0;
#X restore 946 681 pd probifon;
#N canvas 569 313 194 262 probifon 0;
#X obj 65 122 spigot;
#X floatatom 66 83 5 0 0 0 - - - 0;
#X floatatom 64 159 5 0 0 0 - - - 0;
#X obj 132 107 0;
#X obj 101 24 inlet;
#X obj 63 211 outlet;
#X obj 45 23 inlet;
#X connect 0 0 2 0;
#X connect 1 0 0 1;
#X connect 2 0 5 0;
#X connect 3 0 2 0;
#X connect 4 0 1 0;
#X connect 4 0 3 0;
#X connect 6 0 0 0;
#X restore 1008 635 pd probifon;
#X obj 1098 38 r mfx-prob-moct;
#N canvas 402 244 446 544 prob 0;
#X obj 102 46 bng 16 250 50 0 empty empty empty 0 -8 0 10 #fcfcfc #000000 #000000;
#X obj 131 230 bng 16 250 50 0 empty empty empty 0 -8 0 10 #fcfcfc #000000 #000000;
#X obj 110 204 sel 0 1;
#X msg 79 175 0;
#X msg 110 174 1;
#X obj 128 260 random 100;
#X floatatom 127 308 5 0 0 0 - - - 0;
#X obj 115 394 <;
#X floatatom 165 310 5 0 0 0 - - - 0;
#X obj 154 335 t b f;
#X obj 82 12 inlet;
#X obj 92 488 outlet;
#X obj 164 12 inlet;
#X connect 0 0 3 0;
#X connect 0 0 4 0;
#X connect 1 0 5 0;
#X connect 2 1 1 0;
#X connect 4 0 2 0;
#X connect 5 0 6 0;
#X connect 6 0 7 0;
#X connect 7 0 11 0;
#X connect 8 0 9 0;
#X connect 9 0 7 0;
#X connect 9 1 7 1;
#X connect 10 0 0 0;
#X connect 12 0 8 0;
#X restore 1124 510 pd prob;
#X obj 1124 537 tgl 16 0 empty empty empty 0 -8 0 10 #fcfcfc #000000 #000000 0 1;
#N canvas 569 313 194 262 probifon 0;
#X obj 62 117 spigot;
#X floatatom 96 83 5 0 0 0 - - - 0;
#X floatatom 64 159 5 0 0 0 - - - 0;
#X obj 154 107 0;
#X obj 101 24 inlet;
#X obj 63 211 outlet;
#X obj 45 23 inlet;
#X connect 0 0 2 0;
#X connect 1 0 0 1;
#X connect 2 0 5 0;
#X connect 3 0 2 0;
#X connect 4 0 1 0;
#X connect 4 0 3 0;
#X connect 6 0 0 0;
#X restore 937 500 pd probifon;
#N canvas 402 244 446 544 prob 0;
#X obj 102 46 bng 16 250 50 0 empty empty empty 0 -8 0 10 #fcfcfc #000000 #000000;
#X obj 131 230 bng 16 250 50 0 empty empty empty 0 -8 0 10 #fcfcfc #000000 #000000;
#X obj 110 204 sel 0 1;
#X msg 79 175 0;
#X msg 110 174 1;
#X obj 128 260 random 100;
#X floatatom 127 308 5 0 0 0 - - - 0;
#X obj 115 394 <;
#X floatatom 165 310 5 0 0 0 - - - 0;
#X obj 154 335 t b f;
#X obj 82 12 inlet;
#X obj 92 488 outlet;
#X obj 164 12 inlet;
#X connect 0 0 3 0;
#X connect 0 0 4 0;
#X connect 1 0 5 0;
#X connect 2 1 1 0;
#X connect 4 0 2 0;
#X connect 5 0 6 0;
#X connect 6 0 7 0;
#X connect 7 0 11 0;
#X connect 8 0 9 0;
#X connect 9 0 7 0;
#X connect 9 1 7 1;
#X connect 10 0 0 0;
#X connect 12 0 8 0;
#X restore 1043 344 pd prob;
#X obj 1043 371 tgl 16 0 empty empty empty 0 -8 0 10 #fcfcfc #000000 #000000 0 1;
#X obj 1082 69 r mfx-prob-poct;
#X floatatom 425 355 5 0 0 0 - - - 0;
#X obj 627 217 % \$0;
#X obj 385 606 % \$0;
#X text 322 355 set # of pitches;
#X obj 422 292 r mfx-num-pitches;
#X obj 430 321 % 6;
#X obj 473 380 s r-mfx-num-pitches;
#X floatatom 201 804 5 0 0 0 - - - 0;
#X floatatom 870 762 5 0 0 0 - - - 0;
#X obj 755 596 r mfx-note-len;
#X obj 459 184 spigot;
#X obj 490 148 tgl 16 0 empty empty empty 0 -8 0 10 #c6feff #000000 #000000 0 1;
#X obj 392 45 r mfx-cap;
#X obj 1039 698 tgl 16 0 empty empty empty 0 -8 0 10 #c7c6ff #000000 #000000 0 1;
#X obj 1114 697 tgl 16 0 empty empty empty 0 -8 0 10 #c7c6ff #000000 #000000 0 1;
#X text 1058 698 thru on;
#X text 1130 706 thru off;
#X obj 821 760 spigot;
#X obj 667 719 spigot;
#X obj 1041 751 sel 1;
#X msg 1052 778 0;
#X obj 1110 753 sel 0;
#X msg 1110 780 1;
#X connect 0 0 22 0;
#X connect 1 0 12 0;
#X connect 2 0 12 0;
#X connect 3 0 12 0;
#X connect 4 0 12 0;
#X connect 5 0 6 1;
#X connect 6 0 5 0;
#X connect 6 0 25 0;
#X connect 6 0 26 0;
#X connect 7 0 1 0;
#X connect 7 1 2 0;
#X connect 7 2 3 0;
#X connect 7 3 4 0;
#X connect 12 0 13 0;
#X connect 14 0 15 0;
#X connect 15 0 18 0;
#X connect 17 0 30 0;
#X connect 17 0 31 0;
#X connect 17 0 29 0;
#X connect 17 0 39 0;
#X connect 17 0 40 0;
#X connect 17 0 41 0;
#X connect 17 0 44 0;
#X connect 17 0 47 0;
#X connect 18 0 17 0;
#X connect 18 0 19 0;
#X connect 19 0 18 1;
#X connect 22 0 6 0;
#X connect 22 2 23 0;
#X connect 23 0 24 0;
#X connect 24 0 18 1;
#X connect 24 0 6 1;
#X connect 25 0 7 0;
#X connect 26 0 14 0;
#X connect 28 0 27 0;
#X connect 29 0 28 0;
#X connect 30 0 21 0;
#X connect 31 0 20 0;
#X connect 34 0 33 0;
#X connect 35 0 74 0;
#X connect 36 0 35 0;
#X connect 37 0 62 0;
#X connect 38 0 37 0;
#X connect 39 0 34 0;
#X connect 40 0 36 0;
#X connect 41 0 38 0;
#X connect 42 0 65 0;
#X connect 43 0 42 0;
#X connect 44 0 43 0;
#X connect 45 0 67 0;
#X connect 46 0 45 0;
#X connect 47 0 46 0;
#X connect 49 0 50 0;
#X connect 50 0 78 0;
#X connect 50 0 155 0;
#X connect 50 1 51 0;
#X connect 51 0 52 0;
#X connect 51 0 53 1;
#X connect 52 0 146 0;
#X connect 54 0 55 0;
#X connect 55 0 89 0;
#X connect 56 0 49 0;
#X connect 56 0 79 0;
#X connect 56 1 49 1;
#X connect 56 1 79 1;
#X connect 58 0 59 1;
#X connect 59 0 58 0;
#X connect 59 0 147 0;
#X connect 61 0 114 2;
#X connect 62 0 59 0;
#X connect 62 0 87 0;
#X connect 63 0 62 1;
#X connect 63 0 68 0;
#X connect 64 0 65 1;
#X connect 64 0 69 0;
#X connect 65 0 59 0;
#X connect 65 0 87 0;
#X connect 66 0 67 1;
#X connect 66 0 70 0;
#X connect 67 0 59 0;
#X connect 67 0 87 0;
#X connect 68 0 71 0;
#X connect 69 0 72 0;
#X connect 70 0 73 0;
#X connect 71 0 64 0;
#X connect 71 0 66 0;
#X connect 71 0 75 0;
#X connect 71 0 83 0;
#X connect 72 0 63 0;
#X connect 72 0 66 0;
#X connect 72 0 75 0;
#X connect 72 0 83 0;
#X connect 73 0 63 0;
#X connect 73 0 64 0;
#X connect 73 0 75 0;
#X connect 73 0 83 0;
#X connect 74 0 59 0;
#X connect 74 0 87 0;
#X connect 75 0 76 0;
#X connect 75 0 74 1;
#X connect 76 0 77 0;
#X connect 77 0 63 0;
#X connect 77 0 64 0;
#X connect 77 0 66 0;
#X connect 77 0 83 0;
#X connect 78 0 87 1;
#X connect 79 0 81 0;
#X connect 81 0 82 0;
#X connect 82 0 103 0;
#X connect 82 0 102 0;
#X connect 82 0 97 0;
#X connect 82 1 57 1;
#X connect 83 0 81 1;
#X connect 83 0 84 0;
#X connect 83 0 158 0;
#X connect 84 0 85 0;
#X connect 85 0 66 0;
#X connect 85 0 64 0;
#X connect 85 0 63 0;
#X connect 85 0 75 0;
#X connect 87 0 88 0;
#X connect 87 0 132 0;
#X connect 87 0 133 0;
#X connect 87 0 139 0;
#X connect 87 0 142 0;
#X connect 88 0 121 0;
#X connect 89 0 121 0;
#X connect 90 0 88 1;
#X connect 90 0 93 0;
#X connect 91 0 89 1;
#X connect 91 0 94 0;
#X connect 93 0 95 0;
#X connect 94 0 96 0;
#X connect 95 0 91 0;
#X connect 96 0 90 0;
#X connect 97 0 113 0;
#X connect 101 0 141 1;
#X connect 102 0 116 0;
#X connect 102 0 118 0;
#X connect 103 0 102 1;
#X connect 105 0 83 0;
#X connect 106 0 75 0;
#X connect 107 0 63 0;
#X connect 108 0 64 0;
#X connect 109 0 66 0;
#X connect 110 0 90 0;
#X connect 111 0 91 0;
#X connect 112 0 101 0;
#X connect 114 0 97 0;
#X connect 114 0 57 0;
#X connect 114 1 57 1;
#X connect 115 0 137 1;
#X connect 116 0 130 0;
#X connect 116 0 131 0;
#X connect 117 0 115 0;
#X connect 118 0 116 1;
#X connect 119 0 132 1;
#X connect 121 0 122 0;
#X connect 121 0 152 0;
#X connect 121 0 103 0;
#X connect 121 0 102 0;
#X connect 128 0 136 1;
#X connect 129 0 128 0;
#X connect 130 0 153 0;
#X connect 130 0 162 0;
#X connect 130 0 163 0;
#X connect 131 0 130 1;
#X connect 132 0 121 1;
#X connect 132 0 120 0;
#X connect 133 0 135 0;
#X connect 134 0 133 1;
#X connect 135 0 136 0;
#X connect 136 0 130 2;
#X connect 137 0 116 2;
#X connect 138 0 139 1;
#X connect 139 0 140 0;
#X connect 140 0 137 0;
#X connect 141 0 102 2;
#X connect 142 0 143 0;
#X connect 143 0 141 0;
#X connect 144 0 142 1;
#X connect 145 0 146 1;
#X connect 145 0 147 1;
#X connect 145 0 151 0;
#X connect 146 0 51 1;
#X connect 147 0 60 0;
#X connect 147 0 54 0;
#X connect 149 0 150 0;
#X connect 150 0 145 0;
#X connect 154 0 61 0;
#X connect 155 0 53 0;
#X connect 156 0 155 1;
#X connect 158 0 162 1;
#X connect 158 0 164 0;
#X connect 158 0 166 0;
#X connect 159 0 163 1;
#X connect 162 0 57 0;
#X connect 163 0 114 0;
#X connect 164 0 165 0;
#X connect 165 0 159 0;
#X connect 166 0 167 0;
#X connect 167 0 159 0;
#X restore 347 342 pd midieffects;
#X obj 97 36 tgl 16 0 empty empty empty 0 -8 0 10 #fcfcfc #000000 #000000 0 1;
#X obj 172 38 tgl 16 0 empty empty empty 0 -8 0 10 #fcfcfc #000000 #000000 0 1;
#X obj 310 40 tgl 16 0 empty empty empty 0 -8 0 10 #fcfcfc #000000 #000000 0 1;
#X obj 378 43 tgl 16 0 empty empty empty 0 -8 0 10 #fcfcfc #000000 #000000 0 1;
#X obj 593 109 tgl 16 0 empty empty empty 0 -8 0 10 #fcfcfc #000000 #000000 0 1;
#X obj 98 8 r mfx-thru;
#X obj 171 10 r mfx-qtr;
#X obj 62 102 sel 1;
#X msg 62 129 0;
#X obj 238 9 r mfx-8th;
#X obj 308 8 r mfx-16th;
#X obj 381 10 r mfx-32nd;
#X obj 581 9 r mfx-oct;
#X obj 139 103 sel 1;
#X msg 139 130 0;
#X obj 240 38 tgl 16 0 empty empty empty 0 -8 0 10 #fcfcfc #000000 #000000 0 1;
#X obj 207 103 sel 1;
#X msg 207 130 0;
#X text -35 130 mute all others;
#X obj 272 104 sel 1;
#X msg 272 131 0;
#X obj 327 104 sel 1;
#X msg 327 131 0;
#X obj 23 400 s r-mfx-thru;
#X obj 106 390 s r-mfx-qtr;
#X obj 179 400 s r-mfx-8th;
#X obj 253 391 s r-mfx-16th;
#X obj 336 397 s r-mfx-32nd;
#X obj 459 8 r mfx-arp-radio;
#X obj 459 38 select 0 1;
#X msg 423 76 1;
#X obj 425 119 tgl 16 0 empty empty empty 0 -8 0 10 #fcfcfc #000000 #000000 0 1;
#X msg 535 78 1;
#X obj 537 121 tgl 16 0 empty empty empty 0 -8 0 10 #fcfcfc #000000 #000000 0 1;
#X msg 460 77 0;
#X msg 491 77 0;
#X obj 654 10 r mfx-moct;
#X obj 629 111 tgl 16 0 empty empty empty 0 -8 0 10 #fcfcfc #000000 #000000 0 1;
#X obj 691 40 r mfx-5th;
#X obj 662 107 tgl 16 0 empty empty empty 0 -8 0 10 #fcfcfc #000000 #000000 0 1;
#X connect 1 0 0 0;
#X connect 1 0 8 0;
#X connect 2 0 0 1;
#X connect 2 0 14 0;
#X connect 3 0 0 3;
#X connect 3 0 20 0;
#X connect 4 0 0 4;
#X connect 4 0 22 0;
#X connect 5 0 0 7;
#X connect 6 0 1 0;
#X connect 7 0 2 0;
#X connect 8 0 9 0;
#X connect 9 0 25 0;
#X connect 9 0 26 0;
#X connect 9 0 27 0;
#X connect 9 0 28 0;
#X connect 10 0 16 0;
#X connect 11 0 3 0;
#X connect 12 0 4 0;
#X connect 13 0 5 0;
#X connect 14 0 15 0;
#X connect 15 0 24 0;
#X connect 15 0 26 0;
#X connect 15 0 27 0;
#X connect 15 0 28 0;
#X connect 16 0 0 2;
#X connect 16 0 17 0;
#X connect 17 0 18 0;
#X connect 18 0 24 0;
#X connect 18 0 25 0;
#X connect 18 0 27 0;
#X connect 18 0 28 0;
#X connect 20 0 21 0;
#X connect 21 0 24 0;
#X connect 21 0 25 0;
#X connect 21 0 26 0;
#X connect 21 0 28 0;
#X connect 22 0 23 0;
#X connect 23 0 24 0;
#X connect 23 0 25 0;
#X connect 23 0 26 0;
#X connect 23 0 27 0;
#X connect 29 0 30 0;
#X connect 30 0 31 0;
#X connect 30 0 35 0;
#X connect 30 1 33 0;
#X connect 30 1 36 0;
#X connect 31 0 32 0;
#X connect 32 0 0 5;
#X connect 33 0 34 0;
#X connect 34 0 0 6;
#X connect 35 0 34 0;
#X connect 36 0 32 0;
#X connect 37 0 38 0;
#X connect 38 0 0 8;
#X connect 39 0 40 0;
#X connect 40 0 0 9;
#X restore 155 53 pd guts;
#X obj 50 87 vradio 16 1 0 2 mfx-arp-radio empty arp 0 40 0 10 #dfdfdf #000000 #000000 0;
#X obj 29 163 vsl 16 50 0 100 0 1 mfx-prob r-mfx-prob prb 0 -9 0 10 #dfdfdf #000000 #000000 4900 1;
#X text 48 70 rep;
#X obj 103 281 nbx 3 14 -1e+37 1e+37 0 0 empty mfx-prob empty 0 -8 0 10 #ffc7c6 #000000 #000000 0 256;
#X obj 51 163 vsl 16 50 0 100 0 1 mfx-prob-pitch empty empty 0 -9 0 10 #dfdfdf #000000 #000000 4900 1;
#X obj 104 204 nbx 3 14 -1e+37 1e+37 0 0 empty mfx-prob-pitch empty 0 -8 0 10 #ffc7c6 #000000 #000000 0 256;
#X obj 29 221 vsl 16 50 0 100 0 1 mfx-prob-poct empty empty 0 -9 0 10 #dfdfdf #000000 #000000 1700 1;
#X obj 50 221 vsl 16 50 0 100 0 1 mfx-prob-moct empty empty 0 -9 0 10 #dfdfdf #000000 #000000 4700 1;
#X obj 104 262 nbx 3 14 -1e+37 1e+37 0 0 empty mfx-prob-moct empty 0 -8 0 10 #ffc7c6 #000000 #000000 0 256;
#X obj 104 234 nbx 3 14 -1e+37 1e+37 0 0 empty mfx-prob-poct empty 0 -8 0 10 #ffc7c6 #000000 #000000 0 256;
#X obj 28 80 vsl 16 50 1 5 0 1 mfx-num-pitches empty #pc 0 -9 0 10 #dfdfdf #000000 #000000 4900 1;
#X obj 29 135 nbx 3 14 -1e+37 1e+37 0 0 empty r-mfx-num-pitches empty 0 -8 0 10 #ffc7c6 #000000 #000000 0 256;
#X obj 29 280 nbx 3 14 -1e+37 1e+37 0 0 mfx-note-len empty empty 0 -8 0 10 #ffc7c6 #000000 #000000 0 256;
#X obj 27 32 tgl 25 1 mfx-cap r-mfx-cap capture 32 7 0 10 #feffc6 #000000 #000000 0 1;
