#N canvas 263 343 200 343 10;
#X obj 20 8 cnv 15 100 300 empty empty mfx 20 12 0 14 #fcc4c4 #404040 0;
#X obj 92 280 bng 25 250 50 0 mfx-ind r-mfx-ind activity 7 32 0 10 #fcfcfc #000000 #000000;
#X obj 50 31 tgl 25 1 mfx-thru r-mfx-thru thru 32 7 0 10 #fcfcfc #000000 #000000 1 1;
#X obj 50 60 tgl 25 0 mfx-qtr r-mfx-qtr qtr 32 7 0 10 #fcfcfc #000000 #000000 0 1;
#X obj 50 89 tgl 25 0 mfx-8th r-mfx-8th 8th 32 7 0 10 #fcfcfc #000000 #000000 0 1;
#X obj 50 117 tgl 25 0 mfx-16th r-mfx-16th 16th 32 7 0 10 #fcfcfc #000000 #000000 0 1;
#X obj 50 145 tgl 25 0 mfx-32nd r-mfx-32nd 32nd 32 7 0 10 #fcfcfc #000000 #000000 0 1;
#X obj 50 231 tgl 25 1 mfx-moct r-mfx-moct -oct 32 7 0 10 #fcfcfc #000000 #000000 0 1;
#X obj 50 174 tgl 25 0 mfx-5th r-mfx-5th 5th 32 7 0 10 #fcfcfc #000000 #000000 0 1;
#X obj 50 202 tgl 25 0 mfx-oct r-mfx-oct +oct 32 7 0 10 #fcfcfc #000000 #000000 0 1;
#N canvas 355 71 844 588 guts 1;
#N canvas 456 34 1216 838 midieffects 1;
#X obj 137 7 midirealtimein;
#X obj 39 288 bng 15 250 50 0 empty empty empty 17 7 0 10 #fcfcfc #000000 #000000;
#X obj 60 288 bng 15 250 50 0 empty empty empty 17 7 0 10 #fcfcfc #000000 #000000;
#X obj 82 288 bng 15 250 50 0 empty empty empty 17 7 0 10 #fcfcfc #000000 #000000;
#X obj 104 288 bng 15 250 50 0 empty empty empty 17 7 0 10 #fcfcfc #000000 #000000;
#X obj 205 188 + 1;
#X obj 137 188 f;
#X obj 39 255 sel 0 24 48 72;
#X obj 75 76 == 248;
#X msg 161 142 0;
#X obj 163 99 t b b;
#X text 188 141 < resets counter to 0;
#X obj 39 317 t b;
#X obj 40 350 bng 15 250 50 0 empty empty empty 17 7 0 10 #fcfcfc #000000 #000000;
#X obj 146 254 sel 0;
#X obj 145 289 bng 15 250 50 0 empty empty empty 17 7 0 10 #fcfcfc #000000 #000000;
#X text 187 220 < you have two different options here a) separate out the beats or b) use in the more conventional [metro] form.;
#X floatatom 158 361 5 0 0 0 - - - 0;
#X obj 164 327 f 1;
#X obj 206 328 + 1;
#X floatatom 28 412 5 0 0 0 - - - 0;
#X floatatom 67 412 5 0 0 0 - - - 0;
#X obj 139 41 select 248 250 252;
#X obj 299 102 bng 16 250 50 0 empty empty empty 0 -8 0 10 #fcfcfc #000000 #000000;
#X floatatom 203 295 5 0 0 0 - - - 0;
#X obj 112 225 % 96;
#X obj 153 226 % 3;
#X obj 122 467 bng 16 250 50 0 empty empty empty 0 -8 0 10 #fcfcfc #000000 #000000;
#X obj 121 439 sel 0;
#X obj 123 407 % 32;
#X obj 75 380 % 32;
#X obj 28 381 div 32;
#X text 240 295 reset;
#X obj 195 467 bng 16 250 50 0 empty empty empty 0 -8 0 10 #fcfcfc #000000 #000000;
#X obj 194 439 sel 0;
#X obj 244 465 bng 16 250 50 0 empty empty empty 0 -8 0 10 #fcfcfc #000000 #000000;
#X obj 243 437 sel 0;
#X obj 316 468 bng 16 250 50 0 empty empty empty 0 -8 0 10 #fcfcfc #000000 #000000;
#X obj 315 440 sel 0;
#X obj 196 407 % 16;
#X obj 245 405 % 8;
#X obj 317 408 % 4;
#X obj 377 468 bng 16 250 50 0 empty empty empty 0 -8 0 10 #fcfcfc #000000 #000000;
#X obj 376 440 sel 0;
#X obj 378 408 % 2;
#X obj 433 468 bng 16 250 50 0 empty empty empty 0 -8 0 10 #fcfcfc #000000 #000000;
#X obj 432 440 sel 0;
#X obj 434 408 % 1;
#N canvas 0 22 450 278 (subpatch) 0;
#X array \$0-pitches 4 float 3;
#A 0 54 54 58 61;
#X coords 0 90 4 20 200 140 1 0 0;
#X restore 26 505 graph;
#X obj 599 158 stripnote;
#X obj 590 198 t f b;
#X obj 641 195 f;
#X obj 678 198 + 1;
#X obj 678 224 % 4;
#X obj 578 268 array set \$0-pitches;
#X obj 343 638 array get \$0-pitches;
#X floatatom 337 665 5 0 0 0 - - - 0;
#X obj 602 126 notein 1;
#X obj 516 779 noteout 2;
#X obj 385 606 % 4;
#X obj 414 583 + 1;
#X obj 346 583 f;
#X floatatom 432 619 5 0 0 0 - - - 0;
#X floatatom 499 659 5 0 0 0 - - - 0;
#X obj 305 556 spigot;
#X obj 690 452 tgl 16 0 empty empty empty 0 -8 0 10 #ffe3c6 #000000 #000000 0 1;
#X obj 728 455 tgl 16 0 empty empty empty 0 -8 0 10 #ffe3c6 #000000 #000000 0 1;
#X obj 370 556 spigot;
#X obj 759 455 tgl 16 0 empty empty empty 0 -8 0 10 #ffe3c6 #000000 #000000 0 1;
#X obj 436 558 spigot;
#X obj 658 552 sel 1;
#X obj 701 549 sel 1;
#X obj 751 549 sel 1;
#X msg 658 579 0;
#X msg 701 576 0;
#X msg 751 576 0;
#X obj 246 557 spigot;
#X obj 644 453 tgl 16 0 empty empty empty 0 -8 0 10 #ffe3c6 #000000 #000000 0 1;
#X obj 542 511 sel 1;
#X msg 542 538 0;
#X floatatom 658 355 5 0 0 0 - - - 0;
#X obj 761 276 pack f f;
#X text 818 274 bypass;
#X obj 769 322 spigot;
#X obj 768 364 unpack f f;
#X obj 909 279 tgl 16 0 empty empty empty 0 -8 0 10 #c6feff #000000 #000000 0 1;
#X obj 792 549 sel 1;
#X msg 792 576 0;
#X text 267 636 Arp Cache;
#X obj 277 614 f;
#X obj 291 689 spigot;
#X obj 338 688 spigot;
#X obj 547 562 tgl 16 0 empty empty empty 0 -8 0 10 #c7c6ff #000000 #000000 0 1;
#X obj 615 556 tgl 16 0 empty empty empty 0 -8 0 10 #c7c6ff #000000 #000000 0 1;
#X text 566 562 repeat;
#X text 634 554 arp;
#X obj 575 620 sel 1;
#X obj 618 617 sel 1;
#X msg 575 647 0;
#X msg 618 644 0;
#X obj 780 732 bng 16 250 50 0 empty empty empty 0 -8 0 10 #fcfcfc #000000 #000000;
#X text 221 117 experiment with delay to sync host with this clock;
#X text 805 733 output indicator;
#X text 25 428 measure counts;
#X obj 1027 584 tgl 16 0 empty empty empty 0 -8 0 10 #c6feff #000000 #000000 0 1;
#X text 807 629 octave - todo select;
#N canvas 466 340 450 300 mux 0;
#X obj 101 53 inlet;
#X obj 150 52 inlet;
#X obj 202 54 inlet;
#X obj 136 174 spigot;
#X obj 201 175 spigot;
#X obj 168 141 tgl 16 0 empty empty empty 0 -8 0 10 #fcfcfc #000000 #000000 0 1;
#X obj 205 90 tgl 16 0 empty empty empty 0 -8 0 10 #fcfcfc #000000 #000000 0 1;
#X obj 176 210 outlet;
#X obj 259 120 != 1;
#X text 0 118 stream augmentation happens here;
#X connect 0 0 3 0;
#X connect 1 0 4 0;
#X connect 2 0 6 0;
#X connect 3 0 7 0;
#X connect 4 0 7 0;
#X connect 5 0 3 1;
#X connect 6 0 8 0;
#X connect 6 0 4 1;
#X connect 8 0 5 0;
#X restore 978 626 pd mux;
#X obj 994 584 + 12;
#X obj 161 123 del 524;
#X obj 658 20 inlet;
#X obj 704 18 inlet;
#X obj 747 17 inlet;
#X obj 791 16 inlet;
#X obj 833 16 inlet;
#X obj 875 16 inlet;
#X obj 917 16 inlet;
#X obj 961 19 inlet;
#X obj 765 768 s r-mfx-ind;
#X obj 344 722 makenote 90 230;
#X connect 0 0 22 0;
#X connect 1 0 12 0;
#X connect 2 0 12 0;
#X connect 3 0 12 0;
#X connect 4 0 12 0;
#X connect 5 0 6 1;
#X connect 6 0 5 0;
#X connect 6 0 25 0;
#X connect 6 0 26 0;
#X connect 7 0 1 0;
#X connect 7 1 2 0;
#X connect 7 2 3 0;
#X connect 7 3 4 0;
#X connect 12 0 13 0;
#X connect 14 0 15 0;
#X connect 15 0 18 0;
#X connect 17 0 30 0;
#X connect 17 0 31 0;
#X connect 17 0 29 0;
#X connect 17 0 39 0;
#X connect 17 0 40 0;
#X connect 17 0 41 0;
#X connect 17 0 44 0;
#X connect 17 0 47 0;
#X connect 18 0 17 0;
#X connect 18 0 19 0;
#X connect 19 0 18 1;
#X connect 22 0 6 0;
#X connect 22 2 23 0;
#X connect 23 0 24 0;
#X connect 24 0 18 1;
#X connect 24 0 6 1;
#X connect 25 0 7 0;
#X connect 26 0 14 0;
#X connect 28 0 27 0;
#X connect 29 0 28 0;
#X connect 30 0 21 0;
#X connect 31 0 20 0;
#X connect 34 0 33 0;
#X connect 35 0 76 0;
#X connect 36 0 35 0;
#X connect 37 0 64 0;
#X connect 38 0 37 0;
#X connect 39 0 34 0;
#X connect 40 0 36 0;
#X connect 41 0 38 0;
#X connect 42 0 67 0;
#X connect 43 0 42 0;
#X connect 44 0 43 0;
#X connect 45 0 69 0;
#X connect 46 0 45 0;
#X connect 47 0 46 0;
#X connect 49 0 50 0;
#X connect 50 0 54 0;
#X connect 50 0 80 0;
#X connect 50 1 51 0;
#X connect 51 0 52 0;
#X connect 51 0 54 1;
#X connect 52 0 53 0;
#X connect 53 0 51 1;
#X connect 55 0 56 0;
#X connect 56 0 91 0;
#X connect 57 0 49 0;
#X connect 57 0 81 0;
#X connect 57 1 49 1;
#X connect 57 1 81 1;
#X connect 59 0 55 0;
#X connect 59 0 62 0;
#X connect 60 0 61 1;
#X connect 61 0 60 0;
#X connect 61 0 59 0;
#X connect 63 0 118 2;
#X connect 64 0 61 0;
#X connect 64 0 89 0;
#X connect 65 0 64 1;
#X connect 65 0 70 0;
#X connect 66 0 67 1;
#X connect 66 0 71 0;
#X connect 67 0 61 0;
#X connect 67 0 89 0;
#X connect 68 0 69 1;
#X connect 68 0 72 0;
#X connect 69 0 61 0;
#X connect 69 0 89 0;
#X connect 70 0 73 0;
#X connect 71 0 74 0;
#X connect 72 0 75 0;
#X connect 73 0 66 0;
#X connect 73 0 68 0;
#X connect 73 0 77 0;
#X connect 73 0 85 0;
#X connect 74 0 65 0;
#X connect 74 0 68 0;
#X connect 74 0 77 0;
#X connect 74 0 85 0;
#X connect 75 0 65 0;
#X connect 75 0 66 0;
#X connect 75 0 77 0;
#X connect 75 0 85 0;
#X connect 76 0 61 0;
#X connect 76 0 89 0;
#X connect 77 0 78 0;
#X connect 77 0 76 1;
#X connect 78 0 79 0;
#X connect 79 0 65 0;
#X connect 79 0 66 0;
#X connect 79 0 68 0;
#X connect 79 0 85 0;
#X connect 80 0 89 1;
#X connect 81 0 83 0;
#X connect 83 0 84 0;
#X connect 84 0 100 0;
#X connect 84 0 107 0;
#X connect 84 0 106 0;
#X connect 84 1 58 1;
#X connect 85 0 83 1;
#X connect 85 0 86 0;
#X connect 86 0 87 0;
#X connect 87 0 68 0;
#X connect 87 0 66 0;
#X connect 87 0 65 0;
#X connect 87 0 77 0;
#X connect 89 0 90 0;
#X connect 90 0 118 0;
#X connect 91 0 118 0;
#X connect 92 0 90 1;
#X connect 92 0 96 0;
#X connect 93 0 91 1;
#X connect 93 0 97 0;
#X connect 96 0 98 0;
#X connect 97 0 99 0;
#X connect 98 0 93 0;
#X connect 99 0 92 0;
#X connect 100 0 117 0;
#X connect 104 0 106 2;
#X connect 106 0 58 0;
#X connect 107 0 106 1;
#X connect 109 0 85 0;
#X connect 110 0 77 0;
#X connect 111 0 65 0;
#X connect 112 0 66 0;
#X connect 113 0 68 0;
#X connect 114 0 92 0;
#X connect 115 0 93 0;
#X connect 116 0 104 0;
#X connect 118 0 100 0;
#X connect 118 0 106 0;
#X connect 118 0 107 0;
#X connect 118 1 58 1;
#X restore 347 342 pd midieffects;
#X obj 97 36 tgl 16 0 empty empty empty 0 -8 0 10 #fcfcfc #000000 #000000 0 1;
#X obj 172 38 tgl 16 0 empty empty empty 0 -8 0 10 #fcfcfc #000000 #000000 0 1;
#X obj 310 40 tgl 16 0 empty empty empty 0 -8 0 10 #fcfcfc #000000 #000000 0 1;
#X obj 378 43 tgl 16 0 empty empty empty 0 -8 0 10 #fcfcfc #000000 #000000 0 1;
#X obj 637 108 tgl 16 0 empty empty empty 0 -8 0 10 #fcfcfc #000000 #000000 0 1;
#X obj 98 8 r mfx-thru;
#X obj 171 10 r mfx-qtr;
#X obj 62 102 sel 1;
#X msg 62 129 0;
#X obj 238 9 r mfx-8th;
#X obj 308 8 r mfx-16th;
#X obj 381 10 r mfx-32nd;
#X obj 666 35 r mfx-oct;
#X obj 139 103 sel 1;
#X msg 139 130 0;
#X obj 240 38 tgl 16 0 empty empty empty 0 -8 0 10 #fcfcfc #000000 #000000 0 1;
#X obj 207 103 sel 1;
#X msg 207 130 0;
#X text -35 130 mute all others;
#X obj 272 104 sel 1;
#X msg 272 131 0;
#X obj 327 104 sel 1;
#X msg 327 131 0;
#X obj 23 400 s r-mfx-thru;
#X obj 106 390 s r-mfx-qtr;
#X obj 179 400 s r-mfx-8th;
#X obj 253 391 s r-mfx-16th;
#X obj 336 397 s r-mfx-32nd;
#X obj 492 392 s r-mfx-arp;
#X obj 576 392 s r-mfx-rep;
#X obj 459 8 r mfx-arp-radio;
#X obj 459 38 select 0 1;
#X msg 423 76 1;
#X obj 425 119 tgl 16 0 empty empty empty 0 -8 0 10 #fcfcfc #000000 #000000 0 1;
#X msg 535 78 1;
#X obj 537 121 tgl 16 0 empty empty empty 0 -8 0 10 #fcfcfc #000000 #000000 0 1;
#X msg 460 77 0;
#X msg 491 77 0;
#X connect 1 0 0 0;
#X connect 1 0 8 0;
#X connect 2 0 0 1;
#X connect 2 0 14 0;
#X connect 3 0 0 3;
#X connect 3 0 20 0;
#X connect 4 0 0 4;
#X connect 4 0 22 0;
#X connect 5 0 0 7;
#X connect 6 0 1 0;
#X connect 7 0 2 0;
#X connect 8 0 9 0;
#X connect 9 0 25 0;
#X connect 9 0 26 0;
#X connect 9 0 27 0;
#X connect 9 0 28 0;
#X connect 10 0 16 0;
#X connect 11 0 3 0;
#X connect 12 0 4 0;
#X connect 13 0 5 0;
#X connect 14 0 15 0;
#X connect 15 0 24 0;
#X connect 15 0 26 0;
#X connect 15 0 27 0;
#X connect 15 0 28 0;
#X connect 16 0 0 2;
#X connect 16 0 17 0;
#X connect 17 0 18 0;
#X connect 18 0 24 0;
#X connect 18 0 25 0;
#X connect 18 0 27 0;
#X connect 18 0 28 0;
#X connect 20 0 21 0;
#X connect 21 0 24 0;
#X connect 21 0 25 0;
#X connect 21 0 26 0;
#X connect 21 0 28 0;
#X connect 22 0 23 0;
#X connect 23 0 24 0;
#X connect 23 0 25 0;
#X connect 23 0 26 0;
#X connect 23 0 27 0;
#X connect 31 0 32 0;
#X connect 32 0 33 0;
#X connect 32 0 37 0;
#X connect 32 1 35 0;
#X connect 32 1 38 0;
#X connect 33 0 34 0;
#X connect 34 0 0 5;
#X connect 35 0 36 0;
#X connect 36 0 0 6;
#X connect 37 0 36 0;
#X connect 38 0 34 0;
#X restore 146 56 pd guts;
#X obj 25 125 vradio 16 1 0 2 mfx-arp-radio empty arp 0 40 0 10 #fcfcfc #000000 #000000 0;
#X obj 24 186 vsl 16 50 0 100 0 1 mfx-prob r-mfx-prob prob 0 -9 0 10 #fcfcfc #000000 #000000 4900 1;
